<svg xmlns="http://www.w3.org/2000/svg" xmlns:xlink="http://www.w3.org/1999/xlink" viewBox="0,0,256,256" width="64px" height="64px" fill-rule="nonzero"><g fill="none" fill-rule="nonzero" stroke="none" stroke-width="1" stroke-linecap="butt" stroke-linejoin="miter" stroke-miterlimit="10" stroke-dasharray="" stroke-dashoffset="0" font-family="none" font-weight="none" font-size="none" text-anchor="none" style="mix-blend-mode: normal"><g transform="scale(4,4)"><path d="M5.015,7.244l5.466,45.246c0.194,1.603 1.337,2.935 2.9,3.379l17.535,4.977c0.709,0.201 1.46,0.206 2.172,0.013l18.442,-4.996c1.614,-0.437 2.789,-1.817 2.955,-3.471l4.549,-45.187c0.119,-1.181 -0.814,-2.205 -2.009,-2.205h-50.006c-1.21,0 -2.149,1.051 -2.004,2.244z" fill="#e198ad"></path><path d="M57.025,5h-25.025v56c0.366,0.002 0.732,-0.045 1.088,-0.141l18.442,-4.996c1.614,-0.437 2.789,-1.817 2.955,-3.471l4.549,-45.187c0.119,-1.181 -0.814,-2.205 -2.009,-2.205z" fill="#e198ad"></path><path d="M32.025,62c-0.465,0 -0.931,-0.064 -1.383,-0.192l-17.535,-4.977c-1.955,-0.555 -3.376,-2.211 -3.62,-4.221l-5.466,-45.246c-0.103,-0.85 0.165,-1.705 0.733,-2.347c0.574,-0.646 1.399,-1.017 2.266,-1.017h50.006c0.854,0 1.672,0.362 2.244,0.995c0.567,0.628 0.845,1.47 0.76,2.311l-4.55,45.187c-0.208,2.052 -1.69,3.794 -3.69,4.334l-18.44,4.996c-0.434,0.118 -0.879,0.177 -1.325,0.177zM7.02,6c-0.299,0 -0.572,0.122 -0.768,0.344c-0.192,0.217 -0.279,0.494 -0.244,0.78v0l5.466,45.246c0.146,1.207 1.002,2.203 2.18,2.537l17.536,4.977c0.535,0.151 1.1,0.155 1.637,0.01l18.441,-4.996c1.205,-0.326 2.099,-1.373 2.223,-2.605l4.549,-45.188c0.028,-0.283 -0.062,-0.556 -0.253,-0.769c-0.197,-0.217 -0.468,-0.336 -0.762,-0.336z" fill="#292325"></path><path d="M7,12c-0.553,0 -1,-0.447 -1,-1v-2c0,-0.553 0.447,-1 1,-1c0.553,0 1,0.447 1,1v2c0,0.553 -0.447,1 -1,1zM12,12c-0.553,0 -1,-0.447 -1,-1v-2c0,-0.553 0.447,-1 1,-1c0.553,0 1,0.447 1,1v2c0,0.553 -0.447,1 -1,1zM17,12c-0.553,0 -1,-0.447 -1,-1v-2c0,-0.553 0.447,-1 1,-1c0.553,0 1,0.447 1,1v2c0,0.553 -0.447,1 -1,1zM22,12c-0.553,0 -1,-0.447 -1,-1v-2c0,-0.553 0.447,-1 1,-1c0.553,0 1,0.447 1,1v2c0,0.553 -0.447,1 -1,1zM27,12c-0.553,0 -1,-0.447 -1,-1v-2c0,-0.553 0.447,-1 1,-1c0.553,0 1,0.447 1,1v2c0,0.553 -0.447,1 -1,1zM32,12c-0.553,0 -1,-0.447 -1,-1v-2c0,-0.553 0.447,-1 1,-1c0.553,0 1,0.447 1,1v2c0,0.553 -0.447,1 -1,1zM37,12c-0.553,0 -1,-0.447 -1,-1v-2c0,-0.553 0.447,-1 1,-1c0.553,0 1,0.447 1,1v2c0,0.553 -0.447,1 -1,1zM42,12c-0.553,0 -1,-0.447 -1,-1v-2c0,-0.553 0.447,-1 1,-1c0.553,0 1,0.447 1,1v2c0,0.553 -0.447,1 -1,1zM47,12c-0.553,0 -1,-0.447 -1,-1v-2c0,-0.553 0.447,-1 1,-1c0.553,0 1,0.447 1,1v2c0,0.553 -0.447,1 -1,1zM52,12c-0.553,0 -1,-0.447 -1,-1v-2c0,-0.553 0.447,-1 1,-1c0.553,0 1,0.447 1,1v2c0,0.553 -0.447,1 -1,1zM57,12c-0.553,0 -1,-0.447 -1,-1v-2c0,-0.553 0.447,-1 1,-1c0.553,0 1,0.447 1,1v2c0,0.553 -0.447,1 -1,1zM39.999,54.806c-0.44,0 -0.844,-0.293 -0.964,-0.738c-0.145,-0.533 0.17,-1.082 0.703,-1.227l2,-0.542c0.534,-0.146 1.083,0.17 1.227,0.703c0.145,0.533 -0.17,1.082 -0.703,1.227l-2,0.542c-0.088,0.024 -0.176,0.035 -0.263,0.035zM32.024,57.003l-5.298,-1.504c-0.531,-0.15 -0.84,-0.704 -0.688,-1.235c0.15,-0.531 0.701,-0.842 1.235,-0.688l4.763,1.352l3.702,-1.002c0.534,-0.148 1.083,0.17 1.227,0.703c0.145,0.533 -0.17,1.083 -0.703,1.227z" fill="#292325"></path><path d="M15.5,30l1.238,2.262l2.262,1.238l-2.262,1.238l-1.238,2.262l-1.238,-2.262l-2.262,-1.238l2.262,-1.238zM47.502,47l0.876,1.61l1.622,0.892l-1.622,0.876l-0.876,1.622l-0.892,-1.622l-1.61,-0.876l1.61,-0.892zM52.504,23l0.531,0.962l0.965,0.536l-0.966,0.529l-0.53,0.973l-0.538,-0.973l-0.966,-0.529l0.966,-0.536z" fill="#fef9fb"></path><path d="M47.018,17h-30.018c-0.614,0 -1.083,0.548 -0.987,1.155l0.763,4.845h24.598l-0.709,6h-15.665v6h14.956l-0.901,7.625l-6.961,2.122l-6.147,-2.082l-0.444,-2.821c-0.077,-0.486 -0.496,-0.844 -0.988,-0.844h-4.049c-0.614,0 -1.083,0.549 -0.988,1.156l1.014,6.439c0.057,0.362 0.31,0.663 0.658,0.78l10.553,3.574c0.101,0.034 0.205,0.051 0.31,0.051c0.095,0 0.19,-0.014 0.282,-0.042l11.643,-3.548c0.374,-0.114 0.646,-0.439 0.691,-0.827l2.891,-24.465l0.475,-4.019c0.069,-0.585 -0.388,-1.099 -0.977,-1.099z" fill="#fefbfc"></path><path d="M32.014,52c-0.211,0 -0.421,-0.034 -0.624,-0.102l-10.56,-3.576c-0.701,-0.236 -1.209,-0.838 -1.325,-1.57l-1.015,-6.441c-0.091,-0.578 0.075,-1.165 0.455,-1.61c0.381,-0.445 0.935,-0.7 1.521,-0.7h4.05c0.991,0 1.822,0.711 1.976,1.69l0.35,2.222l5.27,1.784l6.029,-1.837l0.69,-5.86h-13.831c-0.553,0 -1,-0.447 -1,-1v-6c0,-0.553 0.447,-1 1,-1h14.776l0.473,-4h-23.474c-0.492,0 -0.911,-0.358 -0.988,-0.845l-0.763,-4.846c-0.091,-0.577 0.075,-1.164 0.455,-1.609c0.381,-0.445 0.935,-0.7 1.521,-0.7h30.019c0.566,0 1.106,0.243 1.483,0.666c0.375,0.423 0.553,0.988 0.486,1.551l-3.365,28.482c-0.093,0.782 -0.639,1.437 -1.393,1.666l-11.643,3.55c-0.185,0.057 -0.378,0.085 -0.573,0.085zM20.466,40l1.015,6.439l10.543,3.563l11.623,-3.55l3.353,-28.452h-30l0.63,4h23.744c0.286,0 0.558,0.122 0.747,0.336c0.19,0.213 0.279,0.498 0.246,0.781l-0.709,6c-0.059,0.504 -0.486,0.883 -0.993,0.883h-14.665v4h13.956c0.285,0 0.558,0.122 0.747,0.336c0.19,0.213 0.279,0.498 0.246,0.781l-0.9,7.625c-0.047,0.395 -0.322,0.724 -0.701,0.839l-6.961,2.122c-0.201,0.062 -0.415,0.059 -0.612,-0.009l-6.147,-2.082c-0.353,-0.119 -0.609,-0.424 -0.668,-0.792l-0.445,-2.82z" fill="#292325"></path></g></g></svg>