<svg xmlns="http://www.w3.org/2000/svg" xmlns:xlink="http://www.w3.org/1999/xlink" viewBox="0,0,256,256" width="64px" height="64px" fill-rule="nonzero"><g fill="none" fill-rule="nonzero" stroke="none" stroke-width="1" stroke-linecap="butt" stroke-linejoin="miter" stroke-miterlimit="10" stroke-dasharray="" stroke-dashoffset="0" font-family="none" font-weight="none" font-size="none" text-anchor="none" style="mix-blend-mode: normal"><g transform="scale(4,4)"><circle cx="32" cy="33" r="6" fill="#292325"></circle><path d="M32,40c-3.859,0 -7,-3.141 -7,-7c0,-3.859 3.141,-7 7,-7c3.859,0 7,3.141 7,7c0,3.859 -3.141,7 -7,7zM32,28c-2.757,0 -5,2.243 -5,5c0,2.757 2.243,5 5,5c2.757,0 5,-2.243 5,-5c0,-2.757 -2.243,-5 -5,-5z" fill="#e198ad"></path><path d="M32,46c-16.822,0 -30,-5.71 -30,-13c0,-7.29 13.178,-13 30,-13c16.822,0 30,5.71 30,13c0,7.29 -13.178,13 -30,13zM32,22c-15.178,0 -28,5.037 -28,11c0,5.963 12.822,11 28,11c15.178,0 28,-5.037 28,-11c0,-5.963 -12.822,-11 -28,-11z" fill="#e198ad"></path><path d="M20.316,59.827c-1.222,0 -2.335,-0.28 -3.316,-0.847c-3.149,-1.818 -4.425,-6.291 -3.593,-12.596c0.793,-6.004 3.397,-13.065 7.334,-19.885c3.938,-6.819 8.752,-12.606 13.555,-16.295c5.045,-3.872 9.557,-5.002 12.704,-3.184v0c3.149,1.818 4.425,6.291 3.593,12.596c-0.793,6.003 -3.398,13.065 -7.334,19.884c-3.938,6.819 -8.752,12.606 -13.555,16.295c-3.472,2.665 -6.691,4.032 -9.388,4.032zM43.684,8.179c-2.234,0 -5.079,1.239 -8.17,3.613c-4.6,3.532 -9.23,9.11 -13.04,15.708c-3.809,6.598 -6.324,13.396 -7.084,19.146c-0.709,5.371 0.243,9.234 2.61,10.602c2.367,1.368 6.187,0.26 10.486,-3.04c4.6,-3.532 9.23,-9.11 13.04,-15.708c3.809,-6.598 6.324,-13.396 7.084,-19.146c0.709,-5.371 -0.243,-9.234 -2.61,-10.602v0c-0.664,-0.384 -1.444,-0.573 -2.316,-0.573z" fill="#e198ad"></path><path d="M43.684,59.827c-2.696,0 -5.916,-1.367 -9.388,-4.032c-4.803,-3.688 -9.617,-9.476 -13.555,-16.295c-3.937,-6.819 -6.541,-13.881 -7.334,-19.885c-0.832,-6.304 0.444,-10.777 3.593,-12.595c3.15,-1.816 7.661,-0.686 12.704,3.186c4.803,3.688 9.617,9.476 13.555,16.295c3.937,6.819 6.541,13.881 7.334,19.885c0.832,6.303 -0.444,10.776 -3.593,12.594c-0.981,0.567 -2.096,0.847 -3.316,0.847zM20.316,8.179c-0.873,0 -1.651,0.189 -2.316,0.573v0c-2.367,1.367 -3.319,5.23 -2.61,10.602c0.76,5.75 3.275,12.549 7.084,19.146c3.81,6.598 8.44,12.176 13.04,15.708c4.298,3.3 8.119,4.407 10.486,3.04c2.367,-1.367 3.319,-5.23 2.61,-10.602c-0.76,-5.75 -3.275,-12.549 -7.084,-19.146c-3.81,-6.598 -8.44,-12.176 -13.04,-15.708c-3.09,-2.373 -5.935,-3.613 -8.17,-3.613z" fill="#e198ad"></path><path d="M10.463,46.972c-0.044,0 -0.088,-0.003 -0.133,-0.009l-1.982,-0.264c-0.548,-0.073 -0.933,-0.575 -0.859,-1.123c0.072,-0.548 0.572,-0.933 1.123,-0.859l1.982,0.264c0.548,0.073 0.933,0.575 0.859,1.123c-0.066,0.502 -0.496,0.868 -0.99,0.868z" fill="#e198ad"></path><path d="M8.194,51.885c-0.536,0 -0.98,-0.426 -0.998,-0.967c-0.019,-0.552 0.413,-1.014 0.966,-1.032l1.998,-0.067c0.551,-0.037 1.015,0.413 1.033,0.966c0.019,0.552 -0.413,1.014 -0.966,1.032l-1.999,0.067c-0.01,0.001 -0.022,0.001 -0.034,0.001z" fill="#e198ad"></path><path d="M9.009,57.093c-0.429,0 -0.825,-0.277 -0.956,-0.708c-0.161,-0.528 0.136,-1.087 0.664,-1.248l1.913,-0.584c0.53,-0.166 1.088,0.136 1.248,0.664c0.162,0.528 -0.136,1.087 -0.664,1.248l-1.913,0.584c-0.098,0.03 -0.196,0.044 -0.292,0.044z" fill="#e198ad"></path><path d="M11.552,61.852c-0.281,0 -0.561,-0.118 -0.759,-0.349c-0.359,-0.419 -0.312,-1.051 0.107,-1.41l1.518,-1.303c0.418,-0.358 1.049,-0.312 1.41,0.107c0.359,0.419 0.312,1.051 -0.107,1.41l-1.518,1.303c-0.188,0.162 -0.42,0.242 -0.651,0.242z" fill="#e198ad"></path><path d="M55.771,18.718c-0.02,0 -0.039,-0.001 -0.059,-0.002l-1.996,-0.115c-0.552,-0.031 -0.973,-0.504 -0.94,-1.056c0.031,-0.551 0.507,-0.971 1.056,-0.94l1.996,0.115c0.552,0.031 0.973,0.504 0.94,1.056c-0.031,0.531 -0.472,0.942 -0.997,0.942z" fill="#e198ad"></path><path d="M53.591,13.797c-0.487,0 -0.913,-0.355 -0.988,-0.852c-0.082,-0.546 0.295,-1.056 0.841,-1.138l1.978,-0.297c0.548,-0.072 1.056,0.296 1.138,0.841c0.082,0.546 -0.295,1.056 -0.841,1.138l-1.978,0.297c-0.051,0.007 -0.101,0.011 -0.15,0.011z" fill="#e198ad"></path><path d="M52.215,9.336c-0.36,0 -0.708,-0.194 -0.887,-0.536c-0.257,-0.488 -0.067,-1.093 0.422,-1.35l1.771,-0.929c0.488,-0.256 1.093,-0.068 1.35,0.422c0.257,0.488 0.067,1.093 -0.422,1.35l-1.771,0.929c-0.148,0.077 -0.307,0.114 -0.463,0.114z" fill="#e198ad"></path><path d="M49.266,5.919c-0.2,0 -0.402,-0.06 -0.578,-0.185c-0.45,-0.32 -0.556,-0.944 -0.236,-1.395l1.158,-1.631c0.32,-0.45 0.943,-0.557 1.395,-0.236c0.45,0.32 0.556,0.944 0.236,1.395l-1.158,1.631c-0.196,0.274 -0.504,0.421 -0.817,0.421z" fill="#e198ad"></path></g></g></svg>